<?xml version="1.0" standalone="no"?>
<!DOCTYPE svg PUBLIC "-//W3C//DTD SVG 20010904//EN"
 "http://www.w3.org/TR/2001/REC-SVG-20010904/DTD/svg10.dtd">
<svg version="1.0" xmlns="http://www.w3.org/2000/svg"
 width="544.000000pt" height="544.000000pt" viewBox="0 0 544.000000 544.000000"
 preserveAspectRatio="xMidYMid meet">
<metadata>
Created by potrace 1.11, written by Peter Selinger 2001-2013
</metadata>
<g transform="translate(0.000000,544.000000) scale(0.100000,-0.100000)"
fill="#000000" stroke="none">
<path d="M5181 5433 c-13 -3 -71 -24 -130 -48 -111 -44 -152 -56 -211 -61 -54
-4 -296 -14 -485 -19 -698 -20 -718 -22 -810 -56 -64 -24 -85 -39 -163 -117
-67 -68 -126 -176 -175 -322 -14 -41 -29 -83 -33 -93 -5 -15 9 -10 67 21 163
88 190 100 275 130 101 34 216 59 319 67 78 7 281 7 335 0 19 -2 71 -6 115 -9
44 -4 91 -8 104 -11 13 -2 47 -7 75 -10 55 -5 136 -15 176 -20 14 -2 57 -7 95
-10 39 -4 71 -8 73 -10 3 -3 -164 -334 -233 -460 -20 -38 -52 -97 -70 -130
-18 -33 -55 -103 -82 -155 -94 -177 -192 -362 -258 -485 -18 -33 -61 -114 -96
-180 -34 -66 -77 -147 -95 -180 -18 -33 -55 -103 -82 -155 -87 -165 -102 -193
-113 -206 -6 -8 -8 -14 -4 -14 4 0 3 -6 -3 -12 -5 -7 -36 -62 -67 -123 -32
-60 -76 -144 -97 -185 -22 -41 -69 -131 -104 -199 -35 -68 -69 -130 -75 -138
-6 -7 -8 -13 -4 -13 3 0 -2 -15 -13 -32 -25 -40 -289 -564 -319 -633 -57 -129
-125 -292 -128 -307 -2 -9 -9 -27 -16 -40 -8 -13 -14 -25 -14 -28 -8 -33 -19
-67 -25 -75 -3 -5 -15 -32 -25 -60 -9 -27 -28 -77 -40 -110 -13 -33 -64 -172
-115 -309 -90 -244 -91 -250 -85 -315 4 -36 8 -68 11 -72 2 -4 7 -27 10 -51 3
-24 7 -56 9 -73 3 -16 7 -51 11 -77 l7 -48 21 28 c36 46 59 73 116 135 86 93
94 112 125 267 2 8 4 15 5 15 1 0 3 14 5 30 7 53 13 93 24 147 6 29 13 64 15
78 9 48 85 243 167 425 12 28 23 55 24 60 2 6 19 45 39 87 20 42 36 79 36 81
0 7 116 251 167 352 80 157 254 465 281 498 8 9 11 17 7 17 -4 0 -1 8 7 18 9
9 25 35 37 57 11 22 35 63 51 90 17 28 33 58 37 68 3 9 9 17 14 17 5 0 9 4 9
10 0 5 18 39 40 75 22 36 40 67 40 69 0 2 36 63 80 136 44 73 80 134 80 137 0
3 8 17 19 31 10 15 30 47 43 72 14 25 70 119 125 210 54 91 136 228 182 305
45 77 100 169 122 204 21 34 39 64 39 66 0 5 189 320 199 332 6 7 11 14 11 17
0 6 277 474 301 508 10 15 19 30 19 33 0 4 20 38 45 76 24 38 41 69 37 69 -4
0 -2 4 3 8 6 4 20 25 32 47 11 22 31 57 42 78 12 21 23 46 25 55 1 9 6 24 9
32 19 49 27 109 22 182 -6 100 -6 103 -29 151 -29 59 -88 78 -185 60z"/>
<path d="M2650 5209 c-47 -3 -94 -9 -105 -14 -17 -7 -78 -50 -120 -83 -5 -4
-50 -37 -100 -72 -79 -56 -485 -354 -750 -549 -130 -96 -227 -168 -250 -186
-11 -9 -49 -37 -85 -63 -36 -25 -95 -76 -131 -112 l-67 -66 25 -95 c14 -52 28
-97 32 -102 4 -4 56 20 117 54 60 34 138 77 174 96 36 19 92 49 125 67 33 18
92 50 130 71 39 21 100 55 137 76 37 20 76 40 87 44 12 3 21 10 21 15 0 4 8
10 18 13 9 2 25 8 36 12 16 7 17 5 11 -15 -4 -12 -8 -28 -9 -34 -6 -32 -109
-307 -198 -526 -17 -41 -31 -79 -33 -85 -1 -5 -7 -23 -13 -38 -7 -16 -12 -30
-12 -31 0 -2 -7 -21 -16 -42 -9 -22 -16 -39 -15 -39 1 0 -17 -45 -39 -100 -23
-55 -43 -104 -44 -110 -3 -11 -4 -14 -60 -155 -22 -58 -41 -107 -42 -110 0 -3
-6 -18 -13 -35 -6 -16 -19 -50 -28 -75 -9 -25 -20 -49 -23 -55 -4 -5 -13 -28
-20 -50 -11 -34 -52 -143 -80 -210 -10 -23 -138 -363 -182 -480 -16 -44 -34
-89 -39 -100 -5 -11 -45 -119 -89 -240 -44 -121 -84 -229 -89 -240 -5 -11 -15
-36 -22 -55 -24 -69 -69 -156 -96 -186 -38 -43 -98 -70 -158 -73 -27 -1 -63
-4 -80 -6 -16 -3 -55 -7 -85 -11 -30 -3 -58 -7 -61 -10 -3 -2 -26 -6 -50 -10
-69 -10 -84 -12 -84 -14 0 -1 -10 -3 -23 -6 -54 -10 -110 -57 -136 -114 -10
-22 -28 -51 -53 -86 l-22 -31 62 -60 c107 -103 71 -95 434 -89 499 10 975 23
1143 31 41 2 130 19 196 36 l122 32 -4 36 c-1 20 -4 66 -6 103 l-3 66 -50 7
c-27 4 -57 8 -65 10 -8 2 -33 6 -55 10 -22 3 -74 12 -115 20 -41 8 -115 21
-165 30 -199 34 -265 49 -316 75 -52 27 -73 73 -65 144 4 45 7 62 20 111 7 28
53 154 91 250 4 11 9 25 11 30 4 13 121 303 133 330 5 11 31 74 57 140 26 66
55 139 65 162 11 23 19 45 19 48 0 4 7 21 15 38 8 18 61 145 119 282 57 138
116 276 130 307 14 31 26 59 26 61 0 2 14 35 32 73 17 38 32 71 33 74 4 13 27
65 74 164 28 59 51 109 51 111 0 1 22 49 49 106 27 57 64 140 84 184 34 80 58
133 103 233 13 29 24 54 24 56 0 16 186 395 231 471 16 28 33 57 36 65 4 8 15
24 25 34 10 11 18 26 18 33 0 7 4 13 8 13 4 0 15 12 24 28 16 26 56 77 88 112
39 43 43 59 66 250 l6 56 -28 -1 c-16 0 -67 -2 -114 -6z"/>
</g>
</svg>
